<svg width="418" height="281" viewBox="0 0 418 281" fill="none" xmlns="http://www.w3.org/2000/svg">
<g clip-path="url(#clip0_197_1001)">
<path d="M72.35 38.6101L36.25 243.31C42.05 250.12 48.08 256.79 52.78 264.42C54.4236 267.054 55.8516 269.816 57.05 272.68H362.21L403.48 38.6101H72.35Z" fill="#0043AE"/>
<path d="M284.26 272.68H362.21L409 7.32007H331.05L284.26 272.68Z" fill="#A4ACB9"/>
<path d="M334.623 19.0685L49.5793 47.6201L69.4839 246.336L354.527 217.784L334.623 19.0685Z" fill="#ECEFF3"/>
<path d="M69.49 247.78C69.1296 247.782 68.7818 247.648 68.5151 247.405C68.2485 247.163 68.0826 246.829 68.05 246.47L48.14 47.7601C48.1207 47.5702 48.139 47.3785 48.1939 47.1958C48.2488 47.013 48.3392 46.8429 48.46 46.6952C48.5808 46.5475 48.7295 46.4251 48.8977 46.335C49.0659 46.2449 49.2502 46.1888 49.44 46.1701L334.44 17.6101C334.823 17.5737 335.205 17.6898 335.502 17.9332C335.8 18.1766 335.99 18.5277 336.03 18.9101L356 217.63C356.037 218.012 355.922 218.392 355.68 218.69C355.43 218.992 355.07 219.183 354.68 219.22L69.68 247.77L69.49 247.78ZM51.17 48.9101L70.79 244.74L352.94 216.47L333.32 20.6501L51.17 48.9101Z" fill="#ECEFF3"/>
<path d="M345.29 44.1899H58.8201V243.9H345.29V44.1899Z" fill="white"/>
<path d="M345.29 245.35H58.8199C58.6295 245.35 58.4409 245.312 58.265 245.24C58.0891 245.167 57.9292 245.06 57.7946 244.925C57.66 244.791 57.5532 244.631 57.4803 244.455C57.4074 244.279 57.3699 244.09 57.3699 243.9V44.19C57.3686 43.9987 57.4051 43.8091 57.4774 43.632C57.5497 43.4549 57.6563 43.2939 57.7911 43.1582C57.9258 43.0225 58.0861 42.9148 58.2627 42.8413C58.4393 42.7678 58.6286 42.73 58.8199 42.73H345.29C345.677 42.73 346.048 42.8838 346.322 43.1576C346.596 43.4314 346.75 43.8028 346.75 44.19V243.9C346.747 244.285 346.592 244.654 346.319 244.926C346.045 245.198 345.675 245.35 345.29 245.35V245.35ZM60.2899 242.44H343.84V45.64H60.2799L60.2899 242.44Z" fill="white"/>
<path d="M333.912 57.9683L48.3689 34.9438L32.3176 234.008L317.861 257.032L333.912 57.9683Z" fill="#F6F8FA"/>
<path d="M317.83 258.5H317.71L32.1699 235.5C31.7837 235.464 31.426 235.281 31.1699 234.99C30.922 234.695 30.7999 234.314 30.8299 233.93L46.8999 34.8301C46.9331 34.4453 47.1164 34.089 47.4102 33.8382C47.704 33.5875 48.0846 33.4624 48.4699 33.4901L334.01 56.4901C334.394 56.5232 334.749 56.7069 334.998 57.001C335.248 57.2951 335.37 57.6758 335.34 58.0601L319.28 257.16C319.25 257.524 319.084 257.864 318.816 258.112C318.547 258.36 318.195 258.499 317.83 258.5V258.5ZM33.8299 232.68L316.48 255.48L332.31 59.3101L49.6799 36.5101L33.8299 232.68Z" fill="#F6F8FA"/>
<path d="M36.41 272.68H362.39L334.98 117.21H9L36.41 272.68Z" fill="#DFE1E7"/>
<path d="M284.7 243.9H328.87C329.871 243.936 330.867 243.741 331.78 243.329C332.693 242.917 333.499 242.3 334.135 241.526C334.77 240.752 335.219 239.841 335.445 238.866C335.672 237.89 335.67 236.875 335.44 235.9L321 154C320.565 151.804 319.4 149.819 317.696 148.367C315.992 146.915 313.847 146.081 311.61 146H267.44C266.439 145.964 265.443 146.16 264.53 146.571C263.617 146.983 262.811 147.6 262.175 148.374C261.54 149.148 261.091 150.059 260.865 151.034C260.638 152.01 260.64 153.025 260.87 154L275.32 235.95C275.762 238.137 276.928 240.111 278.63 241.554C280.332 242.996 282.47 243.823 284.7 243.9V243.9Z" fill="white"/>
<path d="M298.58 230.82C298.205 230.817 297.845 230.666 297.58 230.4C296.784 229.649 296.181 228.717 295.824 227.682C295.467 226.648 295.366 225.542 295.53 224.46C295.659 223.77 295.928 223.113 296.32 222.53C295.915 222.189 295.597 221.757 295.39 221.27C295.13 220.663 295.112 219.98 295.34 219.36C294.857 218.848 294.498 218.232 294.292 217.559C294.085 216.886 294.037 216.175 294.15 215.48C294.23 215.085 294.375 214.707 294.58 214.36C293.467 213.114 292.873 211.49 292.92 209.82C292.974 209.005 293.236 208.216 293.68 207.53C293.05 206.737 292.586 205.826 292.314 204.85C292.043 203.875 291.97 202.854 292.1 201.85C292.221 201.164 292.469 200.506 292.83 199.91C291.1 198.73 289.83 197.11 289.96 195.14C290.03 194.257 290.417 193.429 291.05 192.81C290.496 191.958 290.177 190.975 290.124 189.96C290.072 188.946 290.288 187.935 290.75 187.03C289.748 186.503 288.96 185.644 288.52 184.6C288.299 184.058 288.212 183.47 288.266 182.887C288.32 182.304 288.513 181.743 288.83 181.25C289.041 180.929 289.293 180.636 289.58 180.38C288.833 179.792 288.22 179.053 287.78 178.21C287.24 177.923 286.71 177.613 286.19 177.28C285.436 176.796 284.794 176.155 284.31 175.4C283.966 174.888 283.74 174.305 283.648 173.695C283.557 173.084 283.602 172.461 283.78 171.87C284.203 170.725 285.004 169.759 286.05 169.13C285.331 168.188 284.801 167.114 284.49 165.97C284.26 165.106 284.226 164.202 284.39 163.323C284.554 162.444 284.913 161.613 285.44 160.89C285.858 160.331 286.399 159.877 287.022 159.563C287.645 159.249 288.332 159.084 289.03 159.08C289.415 159.08 289.783 159.233 290.055 159.505C290.327 159.777 290.48 160.146 290.48 160.53C290.48 160.915 290.327 161.283 290.055 161.555C289.783 161.827 289.415 161.98 289.03 161.98C288.774 161.983 288.522 162.046 288.294 162.164C288.067 162.282 287.87 162.452 287.72 162.66C287.461 163.031 287.286 163.455 287.21 163.901C287.134 164.347 287.158 164.804 287.28 165.24C287.568 166.24 288.081 167.16 288.78 167.93C292.727 166.838 296.913 166.974 300.78 168.32C301.729 168.626 302.542 169.252 303.08 170.091C303.618 170.93 303.848 171.93 303.73 172.92C303.618 173.708 303.221 174.428 302.615 174.943C302.009 175.459 301.236 175.735 300.44 175.72C299.22 175.745 298 175.644 296.8 175.42C297.24 175.839 297.548 176.377 297.689 176.968C297.829 177.559 297.795 178.178 297.59 178.75C297.376 179.306 296.986 179.776 296.48 180.09C297.206 180.391 297.881 180.802 298.48 181.31C298.754 181.542 298.932 181.867 298.979 182.223C299.027 182.579 298.941 182.939 298.739 183.235C298.536 183.531 298.231 183.742 297.882 183.826C297.533 183.91 297.165 183.861 296.85 183.69C295.5 182.98 293.85 182.1 292.45 182.17C292.212 182.177 291.979 182.24 291.769 182.353C291.559 182.466 291.378 182.626 291.24 182.82C291.168 182.923 291.125 183.042 291.115 183.167C291.104 183.292 291.127 183.417 291.18 183.53C291.419 183.916 291.74 184.244 292.12 184.491C292.501 184.738 292.931 184.898 293.38 184.96C294.306 184.706 295.278 184.672 296.219 184.862C297.161 185.051 298.044 185.458 298.8 186.05C299.086 186.263 299.283 186.574 299.354 186.923C299.425 187.272 299.366 187.635 299.187 187.942C299.007 188.25 298.721 188.481 298.382 188.591C298.044 188.702 297.676 188.683 297.35 188.54C296.535 188.258 295.682 188.099 294.82 188.07L293.73 187.97C293.616 188.04 293.512 188.124 293.42 188.22C293.1 188.722 292.949 189.314 292.991 189.908C293.032 190.502 293.263 191.067 293.65 191.52H294.1C295.771 191.523 297.424 191.863 298.96 192.52C299.214 192.608 299.439 192.765 299.609 192.973C299.779 193.182 299.888 193.433 299.923 193.7C299.959 193.967 299.919 194.238 299.809 194.484C299.699 194.729 299.523 194.939 299.3 195.09C298.349 195.652 297.258 195.934 296.154 195.902C295.05 195.87 293.977 195.526 293.06 194.91C292.921 195.037 292.835 195.212 292.82 195.4C292.76 196.21 293.66 197.11 294.82 197.82C295.563 197.324 296.385 196.955 297.25 196.73C299.572 196.229 301.967 196.171 304.31 196.56C305.545 196.617 306.75 196.959 307.83 197.56C308.422 197.918 308.915 198.419 309.265 199.016C309.614 199.613 309.808 200.289 309.83 200.98C309.808 201.48 309.653 201.966 309.38 202.386C309.108 202.806 308.728 203.146 308.28 203.37C307.546 203.743 306.717 203.885 305.9 203.78C302.425 203.404 299.008 202.615 295.72 201.43L295.32 201.28C295.097 201.616 294.944 201.994 294.87 202.39C294.762 203.556 295.09 204.721 295.79 205.66C296.973 205.097 298.287 204.869 299.59 205C300.408 205.092 301.213 205.277 301.99 205.55C302.825 205.818 303.531 206.385 303.974 207.141C304.417 207.898 304.565 208.791 304.39 209.65C304.238 210.374 303.811 211.01 303.199 211.426C302.588 211.842 301.839 212.005 301.11 211.88C299.783 211.732 298.493 211.349 297.3 210.75C296.761 210.464 296.248 210.129 295.77 209.75C295.765 209.833 295.765 209.917 295.77 210C295.789 210.918 296.145 211.797 296.77 212.47C297.771 212.065 298.863 211.937 299.93 212.1C300.686 212.207 301.425 212.408 302.13 212.7C302.751 212.934 303.268 213.382 303.589 213.963C303.91 214.544 304.013 215.22 303.88 215.87C303.754 216.428 303.427 216.919 302.963 217.253C302.499 217.586 301.929 217.738 301.36 217.68C300.092 217.592 298.85 217.281 297.69 216.76C297.45 216.65 297.2 216.52 296.95 216.38C297.041 216.823 297.264 217.227 297.59 217.54C298.033 217.482 298.484 217.539 298.899 217.706C299.314 217.872 299.679 218.142 299.96 218.49C300.117 218.681 300.222 218.909 300.266 219.153C300.309 219.396 300.29 219.646 300.21 219.88C300.16 220.023 300.089 220.158 300 220.28C300.298 220.275 300.59 220.361 300.837 220.527C301.084 220.694 301.273 220.932 301.38 221.21C301.498 221.524 301.504 221.869 301.399 222.187C301.293 222.506 301.082 222.778 300.8 222.96C300.399 223.203 299.954 223.363 299.49 223.43C299.196 223.592 298.942 223.816 298.745 224.088C298.548 224.359 298.413 224.671 298.35 225C298.28 225.61 298.355 226.227 298.569 226.802C298.783 227.377 299.129 227.894 299.58 228.31C299.852 228.584 300.005 228.954 300.005 229.34C300.005 229.726 299.852 230.096 299.58 230.37C299.318 230.645 298.959 230.807 298.58 230.82V230.82ZM298.27 207.9C298.406 207.985 298.546 208.062 298.69 208.13C299.579 208.566 300.536 208.847 301.52 208.96C301.563 208.965 301.607 208.965 301.65 208.96C301.665 208.877 301.665 208.793 301.65 208.71C301.602 208.603 301.531 208.508 301.443 208.43C301.355 208.353 301.252 208.295 301.14 208.26C300.584 208.063 300.007 207.933 299.42 207.87C299.037 207.826 298.65 207.836 298.27 207.9V207.9ZM298.77 199.32C301.222 200.073 303.74 200.589 306.29 200.86C306.527 200.897 306.77 200.866 306.99 200.77C306.866 200.445 306.637 200.171 306.34 199.99C305.626 199.625 304.841 199.42 304.04 199.39C302.294 199.133 300.522 199.109 298.77 199.32ZM290.45 176.27C291.854 176.887 293.334 177.314 294.85 177.54C294.801 177.48 294.744 177.426 294.68 177.38C293.521 176.544 292.106 176.138 290.68 176.23L290.45 176.27ZM288.09 171.27C287.412 171.551 286.861 172.07 286.54 172.73C286.492 172.921 286.489 173.121 286.53 173.313C286.572 173.506 286.657 173.686 286.78 173.84C287.032 174.246 287.374 174.589 287.78 174.84V174.84C287.92 174.62 288.088 174.418 288.28 174.24C288.835 173.738 289.536 173.426 290.28 173.35C290.5 173.35 290.73 173.35 290.96 173.3C290.63 173.12 290.31 172.92 289.96 172.72C289.302 172.294 288.677 171.819 288.09 171.3V171.27ZM291.58 170.27C294.219 171.955 297.289 172.841 300.42 172.82C300.81 172.82 300.87 172.67 300.9 172.48C300.917 172.168 300.827 171.86 300.645 171.605C300.463 171.351 300.201 171.166 299.9 171.08C297.23 170.157 294.378 169.88 291.58 170.27V170.27Z" fill="black"/>
<path d="M351.65 30.7399C350.458 30.7616 349.275 30.5325 348.178 30.0673C347.081 29.6022 346.093 28.9114 345.28 28.0399C344.631 27.3424 344.179 26.4852 343.97 25.5558C343.761 24.6263 343.802 23.658 344.09 22.7499C344.215 22.3971 344.471 22.1061 344.805 21.9378C345.139 21.7694 345.525 21.7367 345.883 21.8464C346.24 21.9562 346.542 22.1999 346.724 22.5267C346.906 22.8534 346.955 23.238 346.86 23.5999C346.726 24.0369 346.711 24.5016 346.817 24.9464C346.922 25.3911 347.144 25.7996 347.46 26.1299C348.132 26.8026 348.957 27.3022 349.865 27.5861C350.772 27.87 351.735 27.9296 352.67 27.7599C353.587 27.6058 354.476 27.3195 355.31 26.9099C354.523 25.8923 353.963 24.7177 353.668 23.4654C353.373 22.213 353.35 20.9119 353.6 19.6499C354.105 17.3888 355.226 15.3119 356.84 13.6499C357.612 12.802 358.629 12.2168 359.75 11.9765C360.871 11.7362 362.039 11.8528 363.09 12.3099C363.865 12.6457 364.508 13.227 364.92 13.9643C365.332 14.7016 365.49 15.5539 365.37 16.3899C365.145 18.3813 364.609 20.325 363.78 22.1499C362.905 24.0383 361.669 25.737 360.14 27.1499C360.557 27.3239 360.989 27.461 361.43 27.5599C362.839 27.8322 364.293 27.7636 365.67 27.3599C365.009 26.3057 364.737 25.0536 364.9 23.8199C365.019 22.9027 365.33 22.0209 365.813 21.2319C366.295 20.4428 366.938 19.7641 367.7 19.2399C368.377 18.7419 369.157 18.4016 369.982 18.2442C370.807 18.0867 371.658 18.116 372.47 18.3299C372.983 18.5004 373.445 18.7936 373.818 19.1841C374.191 19.5745 374.463 20.0503 374.61 20.5699C374.848 21.3957 374.831 22.2741 374.56 23.0899C374.068 24.6227 373.186 26.0012 372 27.0899C372.724 27.0193 373.431 26.8265 374.09 26.5199C374.734 26.2034 375.328 25.7921 375.85 25.2999C375.791 24.709 375.842 24.1122 376 23.5399C376.184 22.8659 376.5 22.2355 376.931 21.6859C377.362 21.1363 377.899 20.6786 378.51 20.3399C378.734 20.207 378.99 20.1368 379.25 20.1368C379.511 20.1368 379.766 20.207 379.99 20.3399C380.21 20.4797 380.39 20.6757 380.509 20.9077C380.629 21.1397 380.684 21.3993 380.67 21.6599C380.555 23.1673 380.033 24.6152 379.16 25.8499C380.085 26.6062 381.271 26.9657 382.46 26.8499C384.322 26.7055 386.135 26.185 387.79 25.3199C388.136 25.1693 388.526 25.159 388.879 25.2913C389.232 25.4236 389.519 25.6881 389.68 26.0287C389.842 26.3693 389.864 26.7593 389.742 27.116C389.621 27.4728 389.366 27.7683 389.03 27.9399C387.018 28.984 384.812 29.6003 382.55 29.7499C381.578 29.8185 380.601 29.693 379.677 29.3805C378.754 29.0681 377.901 28.5749 377.17 27.9299C376.606 28.3811 375.992 28.7669 375.34 29.0799C374.258 29.6083 373.08 29.9126 371.877 29.9745C370.674 30.0364 369.471 29.8545 368.34 29.4399C365.988 30.5364 363.349 30.8619 360.8 30.3699C359.642 30.126 358.54 29.6682 357.55 29.0199C356.184 29.8355 354.679 30.3915 353.11 30.6599C352.626 30.7252 352.138 30.7519 351.65 30.7399V30.7399ZM371.14 20.9999C370.501 21.0295 369.883 21.2412 369.36 21.6099C368.935 21.8976 368.576 22.2716 368.305 22.7075C368.035 23.1434 367.859 23.6315 367.79 24.1399C367.736 24.4661 367.753 24.8 367.839 25.1192C367.926 25.4383 368.079 25.7353 368.29 25.9899C368.334 26.039 368.381 26.0857 368.43 26.1299C369.982 25.2731 371.171 23.8845 371.78 22.2199C371.876 21.9609 371.897 21.6802 371.84 21.4099C371.826 21.3287 371.789 21.2532 371.734 21.1915C371.68 21.1297 371.609 21.0842 371.53 21.0599C371.405 21.0174 371.273 20.9971 371.14 20.9999V20.9999ZM360.94 14.7599C360.564 14.7566 360.19 14.8333 359.846 14.985C359.501 15.1367 359.192 15.3599 358.94 15.6399C357.685 16.9118 356.809 18.5081 356.41 20.2499C356.233 21.1415 356.258 22.0615 356.483 22.9423C356.708 23.823 357.127 24.6423 357.71 25.3399C359.144 24.1346 360.3 22.6336 361.1 20.9399C361.8 19.3824 362.256 17.7263 362.45 16.0299C362.484 15.8051 362.439 15.5756 362.325 15.3793C362.21 15.183 362.032 15.0315 361.82 14.9499C361.545 14.8144 361.246 14.7361 360.94 14.7199V14.7599Z" fill="white"/>
</g>
<defs>
<clipPath id="clip0_197_1001">
<rect width="418" height="281" fill="white"/>
</clipPath>
</defs>
</svg>
