<svg width="47" height="50" viewBox="0 0 47 50" fill="none" xmlns="http://www.w3.org/2000/svg">
<g filter="url(#filter0_ii_29_2706)">
<path d="M11.062 7.14438C12.8405 6.92046 13.7297 6.80851 14.3102 6.42609C14.8907 6.04368 15.4617 5.07126 16.6039 3.12642C17.8284 1.04131 19.5131 -0.610304 21.4465 0.218313C23.5323 1.1122 25.0005 3.70415 25.9113 6.43463C30.1882 6.543 34.1033 6.90607 37.5914 7.42736C42.2003 8.11613 44.5047 8.46051 45.9019 10.7845C47.2991 13.1084 46.5202 15.3115 44.9624 19.7177C43.3842 24.1815 41.1501 29.1845 37.9601 34.3567C34.6526 39.7193 31.0676 43.7814 27.7801 47.0048C25.7435 49.0016 24.7252 50.0001 23.3156 50C21.9061 49.9999 20.8879 49.0014 18.8515 47.0044C15.564 43.7804 11.9789 39.7175 8.6713 34.3567C5.47966 29.1858 3.2456 24.1826 1.66788 19.7183C0.110093 15.3104 -0.668803 13.1064 0.727468 10.7831C2.12374 8.4598 4.4288 8.11425 9.03893 7.42315C9.69808 7.32434 10.3726 7.23119 11.062 7.14438Z" fill="url(#paint0_radial_29_2706)"/>
<path d="M11.062 7.14438C12.8405 6.92046 13.7297 6.80851 14.3102 6.42609C14.8907 6.04368 15.4617 5.07126 16.6039 3.12642C17.8284 1.04131 19.5131 -0.610304 21.4465 0.218313C23.5323 1.1122 25.0005 3.70415 25.9113 6.43463C30.1882 6.543 34.1033 6.90607 37.5914 7.42736C42.2003 8.11613 44.5047 8.46051 45.9019 10.7845C47.2991 13.1084 46.5202 15.3115 44.9624 19.7177C43.3842 24.1815 41.1501 29.1845 37.9601 34.3567C34.6526 39.7193 31.0676 43.7814 27.7801 47.0048C25.7435 49.0016 24.7252 50.0001 23.3156 50C21.9061 49.9999 20.8879 49.0014 18.8515 47.0044C15.564 43.7804 11.9789 39.7175 8.6713 34.3567C5.47966 29.1858 3.2456 24.1826 1.66788 19.7183C0.110093 15.3104 -0.668803 13.1064 0.727468 10.7831C2.12374 8.4598 4.4288 8.11425 9.03893 7.42315C9.69808 7.32434 10.3726 7.23119 11.062 7.14438Z" fill="url(#paint1_radial_29_2706)"/>
</g>
<path d="M25.2029 6.67093L25.3687 7.1679L25.8924 7.18117C30.1388 7.28877 34.0233 7.64919 37.481 8.16593C39.8133 8.51448 41.4599 8.76362 42.7051 9.19785C43.899 9.61417 44.6691 10.1834 45.2619 11.1692C45.8543 12.1547 45.9956 13.1031 45.8022 14.3564C45.6005 15.6632 45.0466 17.2392 44.2583 19.4688C42.6955 23.8891 40.4832 28.8431 37.3245 33.9647C34.0562 39.2637 30.5131 43.2793 27.2573 46.4715C26.223 47.4856 25.5039 48.1881 24.8731 48.6476C24.2686 49.0879 23.8129 49.2532 23.3157 49.2532C22.8184 49.2532 22.3628 49.0878 21.7584 48.6475C21.1276 48.188 20.4086 47.4854 19.3744 46.4713C16.1185 43.2783 12.5753 39.2619 9.30684 33.9646L9.30677 33.9645C6.14648 28.8444 3.93432 23.8902 2.37199 19.4695C1.58373 17.239 1.02972 15.6623 0.827942 14.355C0.634423 13.1013 0.775565 12.1528 1.36755 11.1678C1.95981 10.1823 2.72983 9.61295 3.92409 9.19611C5.16964 8.76138 6.81676 8.5114 9.14965 8.16167C9.80297 8.06373 10.4717 7.97138 11.1553 7.88531L11.1848 7.88159C12.049 7.77279 12.7383 7.68601 13.2823 7.57686C13.8347 7.46601 14.3123 7.31896 14.721 7.04971C15.1443 6.77089 15.5012 6.32308 15.8666 5.77808C16.2372 5.22549 16.6747 4.48054 17.2344 3.52745L17.2478 3.50458C17.8372 2.50103 18.4989 1.67259 19.187 1.19192C19.8443 0.732726 20.4768 0.615203 21.1523 0.904711C22.016 1.27486 22.8043 2.02185 23.5001 3.05495C24.1928 4.08331 24.7614 5.34735 25.2029 6.67093Z" stroke="url(#paint2_linear_29_2706)" stroke-width="1.49356" stroke-miterlimit="10"/>
<path d="M25.6558 7.74456L25.6724 7.79414L25.7247 7.79545C29.7307 7.89635 33.3975 8.23436 36.6642 8.7196C38.8271 9.04088 40.4391 9.28062 41.6747 9.7089C42.9053 10.1354 43.7572 10.7472 44.4014 11.8122C45.0455 12.8771 45.189 13.9132 44.9898 15.1962C44.7898 16.4846 44.2453 18.0165 43.5142 20.0718C42.0364 24.2264 39.9444 28.8828 36.9573 33.6967C33.8609 38.6867 30.5046 42.4668 27.4262 45.4669C26.4701 46.3987 25.7587 47.0918 25.1217 47.553C24.4874 48.0122 23.9335 48.2365 23.2934 48.2364C22.6534 48.2364 22.0996 48.0121 21.4653 47.5528C20.8284 47.0916 20.117 46.3985 19.161 45.4666C16.0825 42.4659 12.7261 38.6851 9.62963 33.6967L9.56618 33.7361L9.62962 33.6967C6.64101 28.884 4.54907 24.2274 3.07171 20.0723C2.34065 18.0162 1.79611 16.4838 1.59598 15.195C1.39669 13.9117 1.54002 12.8756 2.18373 11.811C2.82749 10.7463 3.6793 10.1343 4.91006 9.70734C6.14591 9.2786 7.75832 9.03804 9.9218 8.71567C10.4623 8.63513 11.0139 8.55863 11.5762 8.4866L11.5793 8.4862C12.4506 8.3746 13.1082 8.29037 13.6187 8.18818C14.1299 8.08584 14.5011 7.9642 14.7967 7.77389C15.0938 7.58253 15.3939 7.23614 15.7675 6.70139C16.1418 6.1656 16.5959 5.43162 17.1991 4.45676L17.2005 4.45449C17.7656 3.5411 18.4242 2.74452 19.1524 2.26818C19.8775 1.79389 20.6685 1.63833 21.5121 1.99769C22.4718 2.4065 23.2946 3.20608 23.9852 4.2251C24.6754 5.24367 25.2303 6.47674 25.6558 7.74456Z" fill="url(#paint3_linear_29_2706)" fill-opacity="0.29" stroke="url(#paint4_linear_29_2706)" stroke-width="0.149356" stroke-miterlimit="10"/>
<path d="M11.062 7.14438C12.8405 6.92046 13.7297 6.80851 14.3102 6.42609C14.8907 6.04368 15.4617 5.07126 16.6039 3.12642C17.8284 1.04131 19.5131 -0.610304 21.4465 0.218313C23.5323 1.1122 25.0005 3.70415 25.9113 6.43463C30.1882 6.543 34.1033 6.90607 37.5914 7.42736C42.2003 8.11613 44.5047 8.46051 45.9019 10.7845C47.2991 13.1084 46.5202 15.3115 44.9624 19.7177C43.3842 24.1815 41.1501 29.1845 37.9601 34.3567C34.6526 39.7193 31.0676 43.7814 27.7801 47.0048C25.7435 49.0016 24.7252 50.0001 23.3156 50C21.9061 49.9999 20.8879 49.0014 18.8515 47.0044C15.564 43.7804 11.9789 39.7175 8.6713 34.3567C5.47966 29.1858 3.2456 24.1826 1.66788 19.7183C0.110093 15.3104 -0.668803 13.1064 0.727468 10.7831C2.12374 8.4598 4.4288 8.11425 9.03893 7.42315C9.69808 7.32434 10.3726 7.23118 11.062 7.14438Z" fill="url(#paint5_radial_29_2706)"/>
<path d="M26.3122 14.6658C26.3122 7.5342 22.3821 1.9171 20.4171 0C24.328 0.460104 27.127 3.45078 28.0376 4.88861L29.4754 9.48965C30.2902 11.4547 31.6897 16.1036 30.7695 18.9793C29.6192 22.5739 26.3122 14.6658 24.443 22.1425C22.9477 28.1239 16.3433 35.7539 13.228 38.8213C19.2093 28.0088 19.1231 15.4327 18.8355 10.6399C21.7112 11.1 25.3537 13.6114 26.3122 14.6658Z" fill="black" fill-opacity="0.04"/>
<path d="M27.1978 17.1843C27.773 5.45168 23.2199 0.888986 20.8714 0.0742188C28.6932 1.10945 35.0579 5.39417 37.2626 7.40713C37.7227 20.175 33.5243 29.0224 31.3675 31.8501C29.9872 29.6647 27.1499 27.2012 25.9038 26.2426C22.1079 33.4893 15.9828 37.7932 13.3947 39.0393C19.7211 30.4123 20.6318 17.8074 20.2963 12.5833C23.8621 13.6185 26.3831 16.082 27.1978 17.1843Z" fill="url(#paint6_linear_29_2706)" stroke="url(#paint7_linear_29_2706)" stroke-opacity="0.46" stroke-width="0.149356"/>
<g filter="url(#filter1_dii_29_2706)">
<mask id="path-7-inside-1_29_2706" fill="white">
<path d="M27.1978 17.1843C27.773 5.45168 23.2199 0.888986 20.8714 0.0742188C28.6932 1.10945 35.0579 5.39417 37.2626 7.40713C37.7227 20.175 33.5243 29.0224 31.3675 31.8501C29.9872 29.6647 27.1499 27.2012 25.9038 26.2426C22.1079 33.4893 15.9828 37.7932 13.3947 39.0393C19.7211 30.4123 20.6318 17.8074 20.2963 12.5833C23.8621 13.6185 26.3831 16.082 27.1978 17.1843Z"/>
</mask>
<path d="M27.1978 17.1843C27.773 5.45168 23.2199 0.888986 20.8714 0.0742188C28.6932 1.10945 35.0579 5.39417 37.2626 7.40713C37.7227 20.175 33.5243 29.0224 31.3675 31.8501C29.9872 29.6647 27.1499 27.2012 25.9038 26.2426C22.1079 33.4893 15.9828 37.7932 13.3947 39.0393C19.7211 30.4123 20.6318 17.8074 20.2963 12.5833C23.8621 13.6185 26.3831 16.082 27.1978 17.1843Z" fill="url(#paint8_linear_29_2706)"/>
<path d="M27.1978 17.1843C27.773 5.45168 23.2199 0.888986 20.8714 0.0742188C28.6932 1.10945 35.0579 5.39417 37.2626 7.40713C37.7227 20.175 33.5243 29.0224 31.3675 31.8501C29.9872 29.6647 27.1499 27.2012 25.9038 26.2426C22.1079 33.4893 15.9828 37.7932 13.3947 39.0393C19.7211 30.4123 20.6318 17.8074 20.2963 12.5833C23.8621 13.6185 26.3831 16.082 27.1978 17.1843Z" fill="url(#paint9_linear_29_2706)"/>
<path d="M20.8714 0.0742188L22.4 -11.4748L17.0529 11.0804L20.8714 0.0742188ZM27.1978 17.1843L17.8294 24.1088L37.2351 50.3637L38.8336 17.7547L27.1978 17.1843ZM20.2963 12.5833L23.5443 1.3955L7.6069 -3.2315L8.67047 13.3299L20.2963 12.5833ZM13.3947 39.0393L4.0003 32.15L18.4486 49.5357L13.3947 39.0393ZM25.9038 26.2426L33.0068 17.0088L22.0173 8.55536L15.5841 20.8371L25.9038 26.2426ZM31.3675 31.8501L21.5178 38.071L30.467 52.2406L40.6305 38.9151L31.3675 31.8501ZM37.2626 7.40713L48.9048 6.98759L48.7287 2.10098L45.1177 -1.19605L37.2626 7.40713ZM17.0529 11.0804C15.7049 10.6127 15.0162 9.99359 14.8204 9.80372C14.557 9.54824 14.5767 9.47738 14.7194 9.76157C14.9935 10.3076 15.7737 12.2966 15.5621 16.614L38.8336 17.7547C39.5296 3.5575 34.076 -7.67556 24.6899 -10.932L17.0529 11.0804ZM36.5663 10.2598C34.5915 7.58812 30.0837 3.29401 23.5443 1.3955L17.0482 23.7711C17.1074 23.7883 17.2105 23.8258 17.3521 23.9001C17.4946 23.9749 17.6452 24.0708 17.7904 24.1796C17.937 24.2895 18.0395 24.3838 18.0855 24.4292C18.1067 24.4502 18.1001 24.4453 18.0675 24.4082C18.0402 24.3772 17.9547 24.2784 17.8294 24.1088L36.5663 10.2598ZM8.67047 13.3299C8.77296 14.9257 8.69752 18.3639 7.9202 22.2505C7.13372 26.1829 5.80357 29.691 4.0003 32.15L22.7891 45.9285C27.3123 39.7606 29.6007 32.6528 30.7672 26.8199C31.943 20.9413 32.1551 15.4649 31.9221 11.8367L8.67047 13.3299ZM18.4486 49.5357C22.8953 47.3947 31.0757 41.4758 36.2235 31.6482L15.5841 20.8371C14.4301 23.0401 12.8661 24.8886 11.3195 26.3079C10.5563 27.0083 9.84418 27.5608 9.2672 27.961C8.65819 28.3835 8.32232 28.5518 8.34087 28.5428L18.4486 49.5357ZM18.8008 35.4765C19.0791 35.6906 19.7588 36.2529 20.4643 36.9388C20.8045 37.2696 21.0889 37.5694 21.3038 37.8173C21.5358 38.0849 21.58 38.1696 21.5178 38.071L41.2173 25.6293C38.6844 21.6189 34.458 18.1251 33.0068 17.0088L18.8008 35.4765ZM40.6305 38.9151C44.5542 33.7707 49.4539 22.2255 48.9048 6.98759L25.6204 7.82666C25.8009 12.8351 25.0635 16.9558 24.1478 19.976C23.689 21.4893 23.1953 22.6932 22.7749 23.5627C22.3276 24.488 22.0499 24.8568 22.1046 24.7852L40.6305 38.9151ZM45.1177 -1.19605C41.6157 -4.39349 33.1333 -10.0542 22.4 -11.4748L19.3429 11.6233C21.6344 11.9265 23.9022 12.742 25.8763 13.7498C27.9076 14.7869 29.1645 15.7884 29.4075 16.0103L45.1177 -1.19605Z" fill="url(#paint10_linear_29_2706)" fill-opacity="0.54" mask="url(#path-7-inside-1_29_2706)"/>
</g>
<defs>
<filter id="filter0_ii_29_2706" x="0" y="0" width="46.63" height="53.2858" filterUnits="userSpaceOnUse" color-interpolation-filters="sRGB">
<feFlood flood-opacity="0" result="BackgroundImageFix"/>
<feBlend mode="normal" in="SourceGraphic" in2="BackgroundImageFix" result="shape"/>
<feColorMatrix in="SourceAlpha" type="matrix" values="0 0 0 0 0 0 0 0 0 0 0 0 0 0 0 0 0 0 127 0" result="hardAlpha"/>
<feOffset dy="-0.597423"/>
<feComposite in2="hardAlpha" operator="arithmetic" k2="-1" k3="1"/>
<feColorMatrix type="matrix" values="0 0 0 0 1 0 0 0 0 1 0 0 0 0 1 0 0 0 0.29 0"/>
<feBlend mode="normal" in2="shape" result="effect1_innerShadow_29_2706"/>
<feColorMatrix in="SourceAlpha" type="matrix" values="0 0 0 0 0 0 0 0 0 0 0 0 0 0 0 0 0 0 127 0" result="hardAlpha"/>
<feOffset dy="3.28583"/>
<feGaussianBlur stdDeviation="3.43518"/>
<feComposite in2="hardAlpha" operator="arithmetic" k2="-1" k3="1"/>
<feColorMatrix type="matrix" values="0 0 0 0 0.679373 0 0 0 0 0.858824 0 0 0 0 0.298039 0 0 0 0.04 0"/>
<feBlend mode="normal" in2="effect1_innerShadow_29_2706" result="effect2_innerShadow_29_2706"/>
</filter>
<filter id="filter1_dii_29_2706" x="12.1999" y="-1.12063" width="26.2925" height="42.5494" filterUnits="userSpaceOnUse" color-interpolation-filters="sRGB">
<feFlood flood-opacity="0" result="BackgroundImageFix"/>
<feColorMatrix in="SourceAlpha" type="matrix" values="0 0 0 0 0 0 0 0 0 0 0 0 0 0 0 0 0 0 127 0" result="hardAlpha"/>
<feOffset dy="1.19485"/>
<feGaussianBlur stdDeviation="0.597423"/>
<feComposite in2="hardAlpha" operator="out"/>
<feColorMatrix type="matrix" values="0 0 0 0 0 0 0 0 0 0 0 0 0 0 0 0 0 0 0.25 0"/>
<feBlend mode="normal" in2="BackgroundImageFix" result="effect1_dropShadow_29_2706"/>
<feBlend mode="normal" in="SourceGraphic" in2="effect1_dropShadow_29_2706" result="shape"/>
<feColorMatrix in="SourceAlpha" type="matrix" values="0 0 0 0 0 0 0 0 0 0 0 0 0 0 0 0 0 0 127 0" result="hardAlpha"/>
<feOffset dy="-1.49356"/>
<feGaussianBlur stdDeviation="0.597423"/>
<feComposite in2="hardAlpha" operator="arithmetic" k2="-1" k3="1"/>
<feColorMatrix type="matrix" values="0 0 0 0 0 0 0 0 0 0 0 0 0 0 0 0 0 0 0.08 0"/>
<feBlend mode="normal" in2="shape" result="effect2_innerShadow_29_2706"/>
<feColorMatrix in="SourceAlpha" type="matrix" values="0 0 0 0 0 0 0 0 0 0 0 0 0 0 0 0 0 0 127 0" result="hardAlpha"/>
<feOffset dx="-1.19485" dy="1.19485"/>
<feGaussianBlur stdDeviation="0.896135"/>
<feComposite in2="hardAlpha" operator="arithmetic" k2="-1" k3="1"/>
<feColorMatrix type="matrix" values="0 0 0 0 1 0 0 0 0 1 0 0 0 0 1 0 0 0 0.25 0"/>
<feBlend mode="normal" in2="effect2_innerShadow_29_2706" result="effect3_innerShadow_29_2706"/>
</filter>
<radialGradient id="paint0_radial_29_2706" cx="0" cy="0" r="1" gradientUnits="userSpaceOnUse" gradientTransform="translate(3.83178 10.0383) rotate(62.0656) scale(80.0427 71.9079)">
<stop stop-color="#2DC4F1"/>
<stop offset="1" stop-color="#C900EE"/>
</radialGradient>
<radialGradient id="paint1_radial_29_2706" cx="0" cy="0" r="1" gradientUnits="userSpaceOnUse" gradientTransform="translate(45.8666 11.5026) rotate(126.907) scale(44.055 20.906)">
<stop stop-color="#FA00FF"/>
<stop offset="1" stop-color="#FC5CFF" stop-opacity="0"/>
</radialGradient>
<linearGradient id="paint2_linear_29_2706" x1="23.315" y1="-14.522" x2="23.315" y2="50" gradientUnits="userSpaceOnUse">
<stop stop-color="#39B2E9" stop-opacity="0.12"/>
<stop offset="1" stop-color="#785FDD" stop-opacity="0.12"/>
</linearGradient>
<linearGradient id="paint3_linear_29_2706" x1="23.2929" y1="-3.90089" x2="23.2929" y2="48.3111" gradientUnits="userSpaceOnUse">
<stop stop-color="white" stop-opacity="0.42"/>
<stop offset="0.544833" stop-color="#EAEAEA" stop-opacity="0.19117"/>
<stop offset="1" stop-color="#D9D9D9" stop-opacity="0"/>
</linearGradient>
<linearGradient id="paint4_linear_29_2706" x1="26.4561" y1="58.2321" x2="21.9988" y2="8.91471" gradientUnits="userSpaceOnUse">
<stop stop-color="white" stop-opacity="0.12"/>
<stop offset="1" stop-color="white" stop-opacity="0"/>
</linearGradient>
<radialGradient id="paint5_radial_29_2706" cx="0" cy="0" r="1" gradientUnits="userSpaceOnUse" gradientTransform="translate(19.9858) rotate(57.3554) scale(21.8568 21.2882)">
<stop stop-color="#003E5B"/>
<stop offset="1" stop-color="#005883" stop-opacity="0"/>
</radialGradient>
<linearGradient id="paint6_linear_29_2706" x1="35.8019" y1="-8.91482" x2="25.3057" y2="36.808" gradientUnits="userSpaceOnUse">
<stop stop-color="#D9D9D9"/>
<stop offset="1" stop-color="#F3F3F3"/>
</linearGradient>
<linearGradient id="paint7_linear_29_2706" x1="12.9404" y1="41.2653" x2="32.6386" y2="5.46343" gradientUnits="userSpaceOnUse">
<stop stop-color="#5247FF"/>
<stop offset="1" stop-color="#F006F8" stop-opacity="0"/>
</linearGradient>
<linearGradient id="paint8_linear_29_2706" x1="35.8019" y1="-8.91482" x2="25.3057" y2="36.808" gradientUnits="userSpaceOnUse">
<stop stop-color="#D9D9D9"/>
<stop offset="1" stop-color="#F3F3F3"/>
</linearGradient>
<linearGradient id="paint9_linear_29_2706" x1="33.9327" y1="-1.7257" x2="21.7112" y2="35.3702" gradientUnits="userSpaceOnUse">
<stop stop-color="white"/>
<stop offset="1" stop-color="white" stop-opacity="0"/>
</linearGradient>
<linearGradient id="paint10_linear_29_2706" x1="12.9404" y1="41.2653" x2="32.6386" y2="5.46343" gradientUnits="userSpaceOnUse">
<stop stop-color="white"/>
<stop offset="1" stop-color="#C8C8C8" stop-opacity="0"/>
</linearGradient>
</defs>
</svg>
