<svg width="60" height="64" viewBox="0 0 60 64" fill="none" xmlns="http://www.w3.org/2000/svg">
<g filter="url(#filter0_ii_28_2477)">
<path d="M14.1594 9.14481C16.4358 8.85819 17.574 8.71489 18.317 8.2254C19.0601 7.73592 19.791 6.49122 21.2529 4.00182C22.8203 1.33288 24.9767 -0.781189 27.4515 0.27944C30.1213 1.42362 32.0007 4.74131 33.1665 8.23633C38.6409 8.37504 43.6522 8.83977 48.117 9.50702C54.0164 10.3886 56.966 10.8295 58.7544 13.8041C60.5428 16.7787 59.5458 19.5987 57.5518 25.2387C55.5318 30.9524 52.6721 37.3561 48.5889 43.9766C44.3553 50.8407 39.7665 56.0402 35.5586 60.1661C32.9517 62.7221 31.6483 64.0001 29.844 64C28.0398 63.9999 26.7365 62.7218 24.13 60.1657C19.9219 56.039 15.333 50.8384 11.0993 43.9766C7.01396 37.3579 4.15437 30.9538 2.13489 25.2394C0.140918 19.5973 -0.856068 16.7762 0.931159 13.8024C2.71839 10.8285 5.66887 10.3862 11.5698 9.50163C12.4135 9.37515 13.2769 9.25592 14.1594 9.14481Z" fill="url(#paint0_radial_28_2477)"/>
<path d="M14.1594 9.14481C16.4358 8.85819 17.574 8.71489 18.317 8.2254C19.0601 7.73592 19.791 6.49122 21.2529 4.00182C22.8203 1.33288 24.9767 -0.781189 27.4515 0.27944C30.1213 1.42362 32.0007 4.74131 33.1665 8.23633C38.6409 8.37504 43.6522 8.83977 48.117 9.50702C54.0164 10.3886 56.966 10.8295 58.7544 13.8041C60.5428 16.7787 59.5458 19.5987 57.5518 25.2387C55.5318 30.9524 52.6721 37.3561 48.5889 43.9766C44.3553 50.8407 39.7665 56.0402 35.5586 60.1661C32.9517 62.7221 31.6483 64.0001 29.844 64C28.0398 63.9999 26.7365 62.7218 24.13 60.1657C19.9219 56.039 15.333 50.8384 11.0993 43.9766C7.01396 37.3579 4.15437 30.9538 2.13489 25.2394C0.140918 19.5973 -0.856068 16.7762 0.931159 13.8024C2.71839 10.8285 5.66887 10.3862 11.5698 9.50163C12.4135 9.37515 13.2769 9.25592 14.1594 9.14481Z" fill="url(#paint1_radial_28_2477)"/>
</g>
<path d="M32.2597 8.53878L32.4719 9.17491L33.1423 9.1919C38.5776 9.32962 43.5498 9.79097 47.9757 10.4524C50.9611 10.8985 53.0687 11.2174 54.6626 11.7733C56.1908 12.3061 57.1765 13.0347 57.9352 14.2966C58.6935 15.558 58.8744 16.7719 58.6268 18.3761C58.3687 20.0489 57.6596 22.0662 56.6506 24.9201C54.6502 30.5781 51.8185 36.9192 47.7753 43.4748C43.5919 50.2575 39.0567 55.3975 34.8894 59.4836C33.5655 60.7816 32.645 61.6808 31.8375 62.2689C31.0638 62.8325 30.4805 63.0442 29.8441 63.0441C29.2076 63.0441 28.6244 62.8324 27.8507 62.2688C27.0433 61.6806 26.123 60.7813 24.7992 59.4832C20.6317 55.3962 16.0963 50.2553 11.9128 43.4747L11.9127 43.4745C7.86749 36.9208 5.03592 30.5795 3.03614 24.9209C2.02718 22.0659 1.31804 20.0478 1.05977 18.3745C0.812062 16.7696 0.992723 15.5556 1.75046 14.2948C2.50856 13.0333 3.49418 12.3046 5.02284 11.771C6.61714 11.2146 8.72545 10.8946 11.7115 10.4469C12.5478 10.3216 13.4038 10.2034 14.2788 10.0932L14.3166 10.0884C15.4228 9.94917 16.305 9.8381 17.0013 9.69838C17.7084 9.55649 18.3198 9.36827 18.8429 9.02363C19.3847 8.66674 19.8415 8.09355 20.3093 7.39594C20.7836 6.68864 21.3436 5.73513 22.06 4.51521L22.0772 4.48587C22.8316 3.20132 23.6786 2.14092 24.5593 1.52566C25.4008 0.93789 26.2103 0.78746 27.075 1.15803C28.1805 1.63183 29.1895 2.58797 30.0802 3.91033C30.9668 5.22663 31.6946 6.84461 32.2597 8.53878Z" stroke="url(#paint2_linear_28_2477)" stroke-width="1.91175" stroke-miterlimit="10"/>
<path d="M32.8394 9.91278L32.8607 9.97624L32.9276 9.97793C38.0553 10.1071 42.7489 10.5397 46.9302 11.1608C49.6987 11.5721 51.762 11.8789 53.3437 12.4271C54.9188 12.9731 56.0092 13.7562 56.8337 15.1194C57.6582 16.4825 57.8419 17.8086 57.587 19.4509C57.331 21.1001 56.6339 23.0608 55.6982 25.6916C53.8066 31.0095 51.1288 36.9697 47.3054 43.1315C43.342 49.5187 39.0459 54.3573 35.1056 58.1974C33.8817 59.3901 32.9711 60.2773 32.1558 60.8676C31.3438 61.4554 30.6348 61.7424 29.8156 61.7424C28.9964 61.7423 28.2874 61.4553 27.4756 60.8674C26.6603 60.277 25.7498 59.3898 24.5261 58.197C20.5856 54.3561 16.2894 49.5167 12.3259 43.1315L12.2447 43.1819L12.3259 43.1315C8.50049 36.9713 5.8228 31.0108 3.93178 25.6923C2.99602 23.0605 2.29901 21.099 2.04285 19.4494C1.78776 17.8067 1.97122 16.4805 2.79517 15.1178C3.61918 13.755 4.7095 12.9717 6.28487 12.4251C7.86676 11.8764 9.93064 11.5684 12.6999 11.1558C13.3918 11.0527 14.0978 10.9548 14.8176 10.8626L14.8216 10.8621C15.9368 10.7192 16.7784 10.6114 17.4319 10.4806C18.0863 10.3496 18.5614 10.1939 18.9397 9.95032C19.3201 9.70539 19.7042 9.26201 20.1824 8.57753C20.6615 7.89173 21.2428 6.95226 22.0147 5.70448L22.0166 5.70149C22.7399 4.53236 23.5829 3.51273 24.515 2.90302C25.4432 2.29592 26.4557 2.09681 27.5355 2.55679C28.7639 3.08007 29.8171 4.10352 30.701 5.40787C31.5845 6.71164 32.2948 8.28997 32.8394 9.91278Z" fill="url(#paint3_linear_28_2477)" fill-opacity="0.29" stroke="url(#paint4_linear_28_2477)" stroke-width="0.191175" stroke-miterlimit="10"/>
<path d="M14.1594 9.14481C16.4358 8.85819 17.574 8.71489 18.317 8.2254C19.0601 7.73592 19.791 6.49122 21.2529 4.00182C22.8203 1.33288 24.9767 -0.781189 27.4515 0.27944C30.1213 1.42362 32.0007 4.74131 33.1665 8.23633C38.6409 8.37504 43.6522 8.83977 48.117 9.50702C54.0164 10.3886 56.966 10.8295 58.7544 13.8041C60.5428 16.7787 59.5458 19.5987 57.5518 25.2387C55.5318 30.9524 52.6721 37.3561 48.5889 43.9766C44.3553 50.8407 39.7665 56.0402 35.5586 60.1661C32.9517 62.7221 31.6483 64.0001 29.844 64C28.0398 63.9999 26.7365 62.7218 24.13 60.1657C19.9219 56.039 15.333 50.8384 11.0993 43.9766C7.01396 37.3579 4.15437 30.9538 2.13489 25.2394C0.140918 19.5973 -0.856068 16.7762 0.931159 13.8024C2.71839 10.8285 5.66887 10.3862 11.5698 9.50163C12.4135 9.37515 13.2769 9.25592 14.1594 9.14481Z" fill="url(#paint5_radial_28_2477)"/>
<path d="M33.6796 18.7722C33.6796 9.64378 28.6491 2.45389 26.1339 0C31.1398 0.588933 34.7225 4.417 35.8881 6.25741L37.7285 12.1467C38.7714 14.662 40.5628 20.6127 39.3849 24.2935C37.9126 28.8945 33.6796 18.7722 31.2871 28.3424C29.373 35.9985 20.9194 45.765 16.9318 49.6912C24.588 35.8513 24.4775 19.7538 24.1094 13.6191C27.7903 14.208 32.4527 17.4226 33.6796 18.7722Z" fill="black" fill-opacity="0.04"/>
<path d="M34.8132 21.9963C35.5494 6.97855 29.7214 1.1383 26.7154 0.0953979C36.7273 1.4205 44.8742 6.90494 47.6961 9.48152C48.2851 25.8244 42.9111 37.1491 40.1504 40.7686C38.3836 37.9712 34.7519 34.8179 33.1568 33.591C28.2982 42.8667 20.458 48.3756 17.1452 49.9707C25.2431 38.9282 26.4087 22.7939 25.9792 16.107C30.5435 17.4321 33.7703 20.5854 34.8132 21.9963Z" fill="url(#paint6_linear_28_2477)" stroke="url(#paint7_linear_28_2477)" stroke-opacity="0.46" stroke-width="0.191175"/>
<g filter="url(#filter1_dii_28_2477)">
<mask id="path-7-inside-1_28_2477" fill="white">
<path d="M34.8132 21.9963C35.5494 6.97855 29.7214 1.1383 26.7154 0.0953979C36.7273 1.4205 44.8742 6.90494 47.6961 9.48152C48.2851 25.8244 42.9111 37.1491 40.1504 40.7686C38.3836 37.9712 34.7519 34.8179 33.1568 33.591C28.2982 42.8667 20.458 48.3756 17.1452 49.9707C25.2431 38.9282 26.4087 22.7939 25.9792 16.107C30.5435 17.4321 33.7703 20.5854 34.8132 21.9963Z"/>
</mask>
<path d="M34.8132 21.9963C35.5494 6.97855 29.7214 1.1383 26.7154 0.0953979C36.7273 1.4205 44.8742 6.90494 47.6961 9.48152C48.2851 25.8244 42.9111 37.1491 40.1504 40.7686C38.3836 37.9712 34.7519 34.8179 33.1568 33.591C28.2982 42.8667 20.458 48.3756 17.1452 49.9707C25.2431 38.9282 26.4087 22.7939 25.9792 16.107C30.5435 17.4321 33.7703 20.5854 34.8132 21.9963Z" fill="url(#paint8_linear_28_2477)"/>
<path d="M34.8132 21.9963C35.5494 6.97855 29.7214 1.1383 26.7154 0.0953979C36.7273 1.4205 44.8742 6.90494 47.6961 9.48152C48.2851 25.8244 42.9111 37.1491 40.1504 40.7686C38.3836 37.9712 34.7519 34.8179 33.1568 33.591C28.2982 42.8667 20.458 48.3756 17.1452 49.9707C25.2431 38.9282 26.4087 22.7939 25.9792 16.107C30.5435 17.4321 33.7703 20.5854 34.8132 21.9963Z" fill="url(#paint9_linear_28_2477)"/>
<path d="M26.7154 0.0953979L28.6719 -14.6874L21.8278 14.1833L26.7154 0.0953979ZM34.8132 21.9963L22.8216 30.8597L47.661 64.4659L49.707 22.7264L34.8132 21.9963ZM25.9792 16.107L30.1368 1.78664L9.73682 -4.13592L11.0982 17.0627L25.9792 16.107ZM17.1452 49.9707L5.12038 41.1524L23.6142 63.4061L17.1452 49.9707ZM33.1568 33.591L42.2487 21.7716L28.1822 10.9513L19.9476 26.6718L33.1568 33.591ZM40.1504 40.7686L27.5428 48.7313L38.9978 66.8684L52.007 49.8118L40.1504 40.7686ZM47.6961 9.48152L62.5981 8.94451L62.3727 2.68965L57.7506 -1.53054L47.6961 9.48152ZM21.8278 14.1833C20.1023 13.5847 19.2207 12.7922 18.9702 12.5492C18.633 12.2221 18.6582 12.1314 18.8408 12.4952C19.1917 13.1942 20.1903 15.74 19.9194 21.2663L49.707 22.7264C50.5978 4.554 43.6173 -9.82431 31.603 -13.9925L21.8278 14.1833ZM46.8048 13.133C44.2772 9.71319 38.5071 4.21673 30.1368 1.78664L21.8217 30.4274C21.8975 30.4494 22.0294 30.4975 22.2106 30.5925C22.3931 30.6883 22.5859 30.811 22.7717 30.9503C22.9593 31.091 23.0906 31.2116 23.1494 31.2698C23.1765 31.2966 23.1681 31.2903 23.1264 31.2429C23.0914 31.2032 22.982 31.0768 22.8216 30.8597L46.8048 13.133ZM11.0982 17.0627C11.2294 19.1053 11.1328 23.5062 10.1378 28.481C9.13116 33.5145 7.42856 38.0049 5.12038 41.1524L29.1701 58.7889C34.9597 50.8939 37.8888 41.7959 39.3821 34.3299C40.887 26.8052 41.1585 19.7955 40.8603 15.1514L11.0982 17.0627ZM23.6142 63.4061C29.306 60.6656 39.7769 53.0894 46.3661 40.5101L19.9476 26.6718C18.4705 29.4917 16.4686 31.8578 14.489 33.6745C13.512 34.571 12.6005 35.2782 11.862 35.7905C11.0825 36.3313 10.6526 36.5466 10.6763 36.5352L23.6142 63.4061ZM24.065 45.4103C24.4213 45.6844 25.2913 46.4041 26.1943 47.2821C26.6297 47.7055 26.9938 48.0893 27.2688 48.4065C27.5658 48.7491 27.6224 48.8575 27.5428 48.7313L52.7581 32.8059C49.516 27.6726 44.1062 23.2005 42.2487 21.7716L24.065 45.4103ZM52.007 49.8118C57.0294 43.2269 63.301 28.449 62.5981 8.94451L32.7941 10.0185C33.0251 16.4294 32.0813 21.7038 30.9092 25.5697C30.3219 27.5066 29.69 29.0477 29.1519 30.1607C28.5793 31.345 28.2239 31.8171 28.2938 31.7254L52.007 49.8118ZM57.7506 -1.53054C53.2681 -5.62328 42.4106 -12.869 28.6719 -14.6874L24.7589 14.8782C27.692 15.2664 30.5948 16.3101 33.1216 17.6002C35.7217 18.9276 37.3306 20.2095 37.6416 20.4936L57.7506 -1.53054Z" fill="url(#paint10_linear_28_2477)" fill-opacity="0.54" mask="url(#path-7-inside-1_28_2477)"/>
</g>
<defs>
<filter id="filter0_ii_28_2477" x="0" y="0" width="59.6864" height="68.2059" filterUnits="userSpaceOnUse" color-interpolation-filters="sRGB">
<feFlood flood-opacity="0" result="BackgroundImageFix"/>
<feBlend mode="normal" in="SourceGraphic" in2="BackgroundImageFix" result="shape"/>
<feColorMatrix in="SourceAlpha" type="matrix" values="0 0 0 0 0 0 0 0 0 0 0 0 0 0 0 0 0 0 127 0" result="hardAlpha"/>
<feOffset dy="-0.764702"/>
<feComposite in2="hardAlpha" operator="arithmetic" k2="-1" k3="1"/>
<feColorMatrix type="matrix" values="0 0 0 0 1 0 0 0 0 1 0 0 0 0 1 0 0 0 0.29 0"/>
<feBlend mode="normal" in2="shape" result="effect1_innerShadow_28_2477"/>
<feColorMatrix in="SourceAlpha" type="matrix" values="0 0 0 0 0 0 0 0 0 0 0 0 0 0 0 0 0 0 127 0" result="hardAlpha"/>
<feOffset dy="4.20586"/>
<feGaussianBlur stdDeviation="4.39703"/>
<feComposite in2="hardAlpha" operator="arithmetic" k2="-1" k3="1"/>
<feColorMatrix type="matrix" values="0 0 0 0 0.679373 0 0 0 0 0.858824 0 0 0 0 0.298039 0 0 0 0.04 0"/>
<feBlend mode="normal" in2="effect1_innerShadow_28_2477" result="effect2_innerShadow_28_2477"/>
</filter>
<filter id="filter1_dii_28_2477" x="15.6158" y="-1.43401" width="33.6544" height="54.4635" filterUnits="userSpaceOnUse" color-interpolation-filters="sRGB">
<feFlood flood-opacity="0" result="BackgroundImageFix"/>
<feColorMatrix in="SourceAlpha" type="matrix" values="0 0 0 0 0 0 0 0 0 0 0 0 0 0 0 0 0 0 127 0" result="hardAlpha"/>
<feOffset dy="1.5294"/>
<feGaussianBlur stdDeviation="0.764702"/>
<feComposite in2="hardAlpha" operator="out"/>
<feColorMatrix type="matrix" values="0 0 0 0 0 0 0 0 0 0 0 0 0 0 0 0 0 0 0.25 0"/>
<feBlend mode="normal" in2="BackgroundImageFix" result="effect1_dropShadow_28_2477"/>
<feBlend mode="normal" in="SourceGraphic" in2="effect1_dropShadow_28_2477" result="shape"/>
<feColorMatrix in="SourceAlpha" type="matrix" values="0 0 0 0 0 0 0 0 0 0 0 0 0 0 0 0 0 0 127 0" result="hardAlpha"/>
<feOffset dy="-1.91175"/>
<feGaussianBlur stdDeviation="0.764702"/>
<feComposite in2="hardAlpha" operator="arithmetic" k2="-1" k3="1"/>
<feColorMatrix type="matrix" values="0 0 0 0 0 0 0 0 0 0 0 0 0 0 0 0 0 0 0.08 0"/>
<feBlend mode="normal" in2="shape" result="effect2_innerShadow_28_2477"/>
<feColorMatrix in="SourceAlpha" type="matrix" values="0 0 0 0 0 0 0 0 0 0 0 0 0 0 0 0 0 0 127 0" result="hardAlpha"/>
<feOffset dx="-1.5294" dy="1.5294"/>
<feGaussianBlur stdDeviation="1.14705"/>
<feComposite in2="hardAlpha" operator="arithmetic" k2="-1" k3="1"/>
<feColorMatrix type="matrix" values="0 0 0 0 1 0 0 0 0 1 0 0 0 0 1 0 0 0 0.25 0"/>
<feBlend mode="normal" in2="effect2_innerShadow_28_2477" result="effect3_innerShadow_28_2477"/>
</filter>
<radialGradient id="paint0_radial_28_2477" cx="0" cy="0" r="1" gradientUnits="userSpaceOnUse" gradientTransform="translate(4.90467 12.849) rotate(62.0656) scale(102.455 92.0421)">
<stop stop-color="#2DC4F1"/>
<stop offset="1" stop-color="#C900EE"/>
</radialGradient>
<radialGradient id="paint1_radial_28_2477" cx="0" cy="0" r="1" gradientUnits="userSpaceOnUse" gradientTransform="translate(58.7093 14.7233) rotate(126.907) scale(56.3904 26.7597)">
<stop stop-color="#FA00FF"/>
<stop offset="1" stop-color="#FC5CFF" stop-opacity="0"/>
</radialGradient>
<linearGradient id="paint2_linear_28_2477" x1="29.8432" y1="-18.5882" x2="29.8432" y2="64" gradientUnits="userSpaceOnUse">
<stop stop-color="#39B2E9" stop-opacity="0.12"/>
<stop offset="1" stop-color="#785FDD" stop-opacity="0.12"/>
</linearGradient>
<linearGradient id="paint3_linear_28_2477" x1="29.8148" y1="-4.99339" x2="29.8148" y2="61.838" gradientUnits="userSpaceOnUse">
<stop stop-color="white" stop-opacity="0.42"/>
<stop offset="0.544833" stop-color="#EAEAEA" stop-opacity="0.19117"/>
<stop offset="1" stop-color="#D9D9D9" stop-opacity="0"/>
</linearGradient>
<linearGradient id="paint4_linear_28_2477" x1="33.8638" y1="74.5368" x2="28.1585" y2="11.4106" gradientUnits="userSpaceOnUse">
<stop stop-color="white" stop-opacity="0.12"/>
<stop offset="1" stop-color="white" stop-opacity="0"/>
</linearGradient>
<radialGradient id="paint5_radial_28_2477" cx="0" cy="0" r="1" gradientUnits="userSpaceOnUse" gradientTransform="translate(25.5818) rotate(57.3554) scale(27.9767 27.2488)">
<stop stop-color="#003E5B"/>
<stop offset="1" stop-color="#005883" stop-opacity="0"/>
</radialGradient>
<linearGradient id="paint6_linear_28_2477" x1="45.8264" y1="-11.4106" x2="32.3913" y2="47.1147" gradientUnits="userSpaceOnUse">
<stop stop-color="#D9D9D9"/>
<stop offset="1" stop-color="#F3F3F3"/>
</linearGradient>
<linearGradient id="paint7_linear_28_2477" x1="16.5638" y1="52.8199" x2="41.7775" y2="6.99359" gradientUnits="userSpaceOnUse">
<stop stop-color="#5247FF"/>
<stop offset="1" stop-color="#F006F8" stop-opacity="0"/>
</linearGradient>
<linearGradient id="paint8_linear_28_2477" x1="45.8264" y1="-11.4106" x2="32.3913" y2="47.1147" gradientUnits="userSpaceOnUse">
<stop stop-color="#D9D9D9"/>
<stop offset="1" stop-color="#F3F3F3"/>
</linearGradient>
<linearGradient id="paint9_linear_28_2477" x1="43.4338" y1="-2.20849" x2="27.7903" y2="45.2742" gradientUnits="userSpaceOnUse">
<stop stop-color="white"/>
<stop offset="1" stop-color="white" stop-opacity="0"/>
</linearGradient>
<linearGradient id="paint10_linear_28_2477" x1="16.5638" y1="52.8199" x2="41.7775" y2="6.99359" gradientUnits="userSpaceOnUse">
<stop stop-color="white"/>
<stop offset="1" stop-color="#C8C8C8" stop-opacity="0"/>
</linearGradient>
</defs>
</svg>
