<?xml version="1.0" encoding="utf-8"?>
<!-- Generator: Adobe Illustrator 28.0.0, SVG Export Plug-In . SVG Version: 6.00 Build 0)  -->
<svg version="1.1" baseProfile="basic" id="Layer_1"
	 xmlns="http://www.w3.org/2000/svg" xmlns:xlink="http://www.w3.org/1999/xlink" x="0px" y="0px" viewBox="0 0 62 66"
	 xml:space="preserve">
<g>
	
		<radialGradient id="SVGID_1_" cx="-645.9324" cy="414.0526" r="1" gradientTransform="matrix(48.2482 90.517 81.5563 -43.4719 -2597.9531 76481.3203)" gradientUnits="userSpaceOnUse">
		<stop  offset="0" style="stop-color:#2DC4F1"/>
		<stop  offset="1" style="stop-color:#C900EE"/>
	</radialGradient>
	<path fill="url(#SVGID_1_)" d="M14.9,10.1c2.3-0.3,3.4-0.4,4.2-0.9C19.8,8.7,20.5,7.5,22,5c1.6-2.7,3.7-4.8,6.2-3.7
		c2.7,1.1,4.6,4.5,5.7,8c5.5,0.1,10.5,0.6,15,1.3c5.9,0.9,8.9,1.3,10.7,4.3c1.8,3,0.8,5.8-1.2,11.4c-2,5.7-4.9,12.1-9,18.7
		c-4.3,6.9-8.9,12.1-13.1,16.2c-2.6,2.6-3.9,3.8-5.7,3.8c-1.8,0-3.1-1.3-5.7-3.8c-4.2-4.1-8.8-9.3-13.1-16.2c-4.1-6.6-7-13-9-18.7
		c-2-5.6-3-8.5-1.2-11.4c1.8-3,4.8-3.4,10.7-4.3C13.1,10.3,14,10.2,14.9,10.1z"/>
	
		<radialGradient id="SVGID_00000032631362407858570570000005000866202029117877_" cx="-649.9377" cy="429.0697" r="1" gradientTransform="matrix(-34.0419 45.09 21.4281 16.1778 -31259.6211 22379.9512)" gradientUnits="userSpaceOnUse">
		<stop  offset="0" style="stop-color:#FA00FF"/>
		<stop  offset="1" style="stop-color:#FC5CFF;stop-opacity:0"/>
	</radialGradient>
	<path fill="url(#SVGID_00000032631362407858570570000005000866202029117877_)" d="M14.9,10.1c2.3-0.3,3.4-0.4,4.2-0.9
		C19.8,8.7,20.5,7.5,22,5c1.6-2.7,3.7-4.8,6.2-3.7c2.7,1.1,4.6,4.5,5.7,8c5.5,0.1,10.5,0.6,15,1.3c5.9,0.9,8.9,1.3,10.7,4.3
		c1.8,3,0.8,5.8-1.2,11.4c-2,5.7-4.9,12.1-9,18.7c-4.3,6.9-8.9,12.1-13.1,16.2c-2.6,2.6-3.9,3.8-5.7,3.8c-1.8,0-3.1-1.3-5.7-3.8
		c-4.2-4.1-8.8-9.3-13.1-16.2c-4.1-6.6-7-13-9-18.7c-2-5.6-3-8.5-1.2-11.4c1.8-3,4.8-3.4,10.7-4.3C13.1,10.3,14,10.2,14.9,10.1z"/>
</g>
<linearGradient id="SVGID_00000096051366838157049220000013674678469445151389_" gradientUnits="userSpaceOnUse" x1="-256.3477" y1="151.6322" x2="-256.3477" y2="69.0441" gradientTransform="matrix(1 0 0 -1 287 134)">
	<stop  offset="0" style="stop-color:#39B2E9;stop-opacity:0.12"/>
	<stop  offset="1" style="stop-color:#785FDD;stop-opacity:0.12"/>
</linearGradient>
<path fill="none" stroke="url(#SVGID_00000096051366838157049220000013674678469445151389_)" stroke-width="1.9117" stroke-miterlimit="10" d="
	M33.1,9.5l0.2,0.6l0.7,0c5.5,0.1,10.5,0.6,14.9,1.3c3,0.4,5.1,0.8,6.7,1.3c1.5,0.5,2.5,1.3,3.3,2.5c0.8,1.3,0.9,2.5,0.7,4.1
	c-0.3,1.7-1,3.7-2,6.5c-2,5.7-4.9,12-8.9,18.6c-4.2,6.8-8.8,11.9-13,16c-1.3,1.3-2.3,2.2-3.1,2.8c-0.8,0.6-1.4,0.8-2,0.8
	c-0.6,0-1.2-0.2-2-0.8c-0.8-0.6-1.7-1.5-3.1-2.8c-4.2-4.1-8.7-9.2-13-16l0,0c-4.1-6.6-6.9-12.9-8.9-18.6c-1-2.9-1.7-4.9-2-6.5
	c-0.2-1.6-0.1-2.8,0.7-4.1c0.8-1.3,1.8-2,3.3-2.5c1.6-0.6,3.7-0.9,6.7-1.3c0.9-0.1,1.7-0.2,2.6-0.4l0,0c1.1-0.1,2-0.2,2.7-0.4
	c0.7-0.1,1.3-0.3,1.8-0.7c0.5-0.4,1-0.9,1.5-1.6c0.5-0.7,1-1.7,1.8-2.9l0,0c0.8-1.3,1.6-2.3,2.5-3c0.8-0.6,1.7-0.7,2.5-0.4
	c1.1,0.5,2.1,1.4,3,2.8C31.8,6.2,32.5,7.8,33.1,9.5z"/>
<linearGradient id="SVGID_00000085934647109804113180000002552802605636449160_" gradientUnits="userSpaceOnUse" x1="-256.3762" y1="138.0374" x2="-256.3762" y2="71.2061" gradientTransform="matrix(1 0 0 -1 287 134)">
	<stop  offset="0" style="stop-color:#FFFFFF;stop-opacity:0.42"/>
	<stop  offset="0.5448" style="stop-color:#EAEAEA;stop-opacity:0.1912"/>
	<stop  offset="1" style="stop-color:#D9D9D9;stop-opacity:0"/>
</linearGradient>
<linearGradient id="SVGID_00000015323562686262215980000009391062837439809156_" gradientUnits="userSpaceOnUse" x1="-251.3177" y1="58.5961" x2="-256.9937" y2="121.7277" gradientTransform="matrix(1 0 0 -1 287 134)">
	<stop  offset="0" style="stop-color:#FFFFFF;stop-opacity:0.12"/>
	<stop  offset="1" style="stop-color:#FFFFFF;stop-opacity:0"/>
</linearGradient>
<path fill="url(#SVGID_00000085934647109804113180000002552802605636449160_)" fill-opacity="0.29" stroke="url(#SVGID_00000015323562686262215980000009391062837439809156_)" stroke-width="0.1912" stroke-miterlimit="10" d="
	M33.7,10.9L33.7,10.9L33.7,10.9c5.2,0.2,10,0.6,14.2,1.2c2.8,0.4,4.9,0.7,6.4,1.3c1.6,0.5,2.7,1.3,3.5,2.7c0.8,1.4,1,2.7,0.8,4.3
	c-0.3,1.6-1,3.6-1.9,6.2c-1.9,5.3-4.6,11.3-8.4,17.4c-4,6.4-8.3,11.2-12.3,15.1c-1.2,1.2-2.1,2.1-3,2.7c-0.8,0.6-1.5,0.9-2.4,0.9
	c-0.8,0-1.5-0.3-2.4-0.9c-0.8-0.6-1.7-1.5-3-2.7c-4-3.8-8.3-8.7-12.3-15.1l-0.1,0l0.1,0C9.2,37.9,6.5,32,4.6,26.6
	C3.7,24,3,22.1,2.7,20.4c-0.3-1.6-0.1-3,0.8-4.3c0.8-1.4,1.9-2.1,3.5-2.7c1.6-0.5,3.7-0.9,6.4-1.3c0.7-0.1,1.4-0.2,2.2-0.3l0,0
	c1.1-0.1,2-0.2,2.6-0.4c0.7-0.1,1.1-0.3,1.5-0.5c0.4-0.2,0.8-0.7,1.2-1.4c0.5-0.7,1.1-1.6,1.8-2.9l0,0c0.7-1.2,1.6-2.2,2.5-2.8
	c0.9-0.6,2-0.8,3-0.3c1.2,0.5,2.3,1.5,3.2,2.9C32.4,7.7,33.1,9.2,33.7,10.9z"/>
<radialGradient id="SVGID_00000177455326699068116690000016721480106193546925_" cx="-634.6028" cy="417.6564" r="1" gradientTransform="matrix(15.1707 23.5573 22.9945 -14.8082 49.9375 21135.248)" gradientUnits="userSpaceOnUse">
	<stop  offset="0" style="stop-color:#003E5B"/>
	<stop  offset="1" style="stop-color:#005883;stop-opacity:0"/>
</radialGradient>
<path fill="url(#SVGID_00000177455326699068116690000016721480106193546925_)" d="M14.9,10.1c2.3-0.3,3.4-0.4,4.2-0.9
	C19.8,8.7,20.5,7.5,22,5c1.6-2.7,3.7-4.8,6.2-3.7c2.7,1.1,4.6,4.5,5.7,8c5.5,0.1,10.5,0.6,15,1.3c5.9,0.9,8.9,1.3,10.7,4.3
	c1.8,3,0.8,5.8-1.2,11.4c-2,5.7-4.9,12.1-9,18.7c-4.3,6.9-8.9,12.1-13.1,16.2c-2.6,2.6-3.9,3.8-5.7,3.8c-1.8,0-3.1-1.3-5.7-3.8
	c-4.2-4.1-8.8-9.3-13.1-16.2c-4.1-6.6-7-13-9-18.7c-2-5.6-3-8.5-1.2-11.4c1.8-3,4.8-3.4,10.7-4.3C13.1,10.3,14,10.2,14.9,10.1z"/>
<path fill-opacity="4.000000e-02" d="M34.5,19.7c0-9.1-5.1-16.3-7.6-18.8c5,0.6,8.6,4.4,9.8,6.3l1.9,5.9c1,2.5,2.8,8.5,1.7,12.1
	c-1.5,4.6-5.7-5.5-8.1,4C30.2,37,21.7,46.7,17.7,50.6c7.7-13.8,7.6-29.9,7.2-36.1C28.6,15.2,33.3,18.4,34.5,19.7z"/>
<linearGradient id="SVGID_00000085218826460827965370000016515391243324209057_" gradientUnits="userSpaceOnUse" x1="-243.9194" y1="145.2856" x2="-257.2912" y2="86.7298" gradientTransform="matrix(1 0 0 -1 287 134)">
	<stop  offset="0" style="stop-color:#D9D9D9"/>
	<stop  offset="1" style="stop-color:#F3F3F3"/>
</linearGradient>
<linearGradient id="SVGID_00000018943457139567824250000000381340595543058361_" gradientUnits="userSpaceOnUse" x1="-270.1723" y1="80.4844" x2="-245.0295" y2="126.422" gradientTransform="matrix(1 0 0 -1 287 134)">
	<stop  offset="0" style="stop-color:#5247FF"/>
	<stop  offset="1" style="stop-color:#F006F8;stop-opacity:0"/>
</linearGradient>
<path fill="url(#SVGID_00000085218826460827965370000016515391243324209057_)" stroke="url(#SVGID_00000018943457139567824250000000381340595543058361_)" stroke-width="0.1912" stroke-opacity="0.46" d="
	M35.6,23c0.7-15-5.1-20.9-8.1-21.9c10.1,1.3,18.3,6.8,21.1,9.4c0.6,16.3-4.8,27.7-7.6,31.3c-1.8-2.8-5.4-6-7-7.2
	c-4.9,9.3-12.8,14.8-16.1,16.4c8.1-11,9.3-27.2,8.9-33.9C31.4,18.4,34.6,21.5,35.6,23z"/>
<g>
	
		<linearGradient id="SVGID_00000183947351922489309600000001210388125581768840_" gradientUnits="userSpaceOnUse" x1="-243.9194" y1="145.2856" x2="-257.2912" y2="86.7298" gradientTransform="matrix(1 0 0 -1 287 134)">
		<stop  offset="0" style="stop-color:#D9D9D9"/>
		<stop  offset="1" style="stop-color:#F3F3F3"/>
	</linearGradient>
	<path fill="url(#SVGID_00000183947351922489309600000001210388125581768840_)" d="M35.6,23c0.7-15-5.1-20.9-8.1-21.9
		c10.1,1.3,18.3,6.8,21.1,9.4c0.6,16.3-4.8,27.7-7.6,31.3c-1.8-2.8-5.4-6-7-7.2c-4.9,9.3-12.8,14.8-16.1,16.4
		c8.1-11,9.3-27.2,8.9-33.9C31.4,18.4,34.6,21.5,35.6,23z"/>
	
		<linearGradient id="SVGID_00000101787792144866003790000016318013237838656422_" gradientUnits="userSpaceOnUse" x1="-244.3844" y1="135.8093" x2="-259.9621" y2="88.278" gradientTransform="matrix(1 0 0 -1 287 134)">
		<stop  offset="0" style="stop-color:#FFFFFF"/>
		<stop  offset="1" style="stop-color:#FFFFFF;stop-opacity:0"/>
	</linearGradient>
	<path fill="url(#SVGID_00000101787792144866003790000016318013237838656422_)" d="M35.6,23c0.7-15-5.1-20.9-8.1-21.9
		c10.1,1.3,18.3,6.8,21.1,9.4c0.6,16.3-4.8,27.7-7.6,31.3c-1.8-2.8-5.4-6-7-7.2c-4.9,9.3-12.8,14.8-16.1,16.4
		c8.1-11,9.3-27.2,8.9-33.9C31.4,18.4,34.6,21.5,35.6,23z"/>
</g>
</svg>
