<svg width="115" height="123" viewBox="0 0 115 123" fill="none" xmlns="http://www.w3.org/2000/svg">
<path d="M28.1351 17.408C32.3461 16.8849 34.4516 16.6234 35.8312 15.7061C37.2108 14.7888 38.5185 12.5091 41.1338 7.94961C44.1391 2.71047 48.3258 -1.53208 53.145 0.53331C58.2402 2.71697 61.827 9.04876 64.0519 15.719C74.4998 15.9837 84.0638 16.8706 92.5849 18.1441C103.844 19.8267 109.473 20.6679 112.886 26.345C116.299 32.0221 114.397 37.4041 110.591 48.1679C106.736 59.0724 101.278 71.294 93.4855 83.9291C85.4058 97.0291 76.6481 106.952 68.6172 114.827C63.6421 119.705 61.1545 122.144 57.711 122.144C54.2676 122.143 51.7803 119.704 46.8058 114.826C38.7748 106.95 30.0168 97.0248 21.9368 83.9291C14.14 71.2973 8.68249 59.075 4.82833 48.1693C1.02285 37.4013 -0.879895 32.0173 2.53102 26.3417C5.94193 20.6662 11.5729 19.8221 22.8349 18.1338C24.559 17.8753 26.3262 17.6327 28.1351 17.408Z" fill="#595959"/>
<path d="M67.1948 41.9798C68.5998 13.3185 57.4771 2.17238 51.7402 0.182007C70.8478 2.71095 86.3961 13.178 91.7818 18.0954C92.9058 49.2857 82.6495 70.8988 77.3809 77.8065C74.0089 72.4677 67.0778 66.4497 64.0337 64.1081C54.7609 81.8107 39.7979 92.3246 33.4756 95.3687C48.9302 74.2941 51.1548 43.5019 50.3352 30.7401C59.046 33.269 65.2045 39.287 67.1948 41.9798Z" fill="url(#paint0_linear_115_1769)" stroke="url(#paint1_linear_115_1769)" stroke-opacity="0.46" stroke-width="0.351242"/>
<g filter="url(#filter0_dii_115_1769)">
<mask id="path-3-inside-1_115_1769" fill="white">
<path d="M67.1948 41.9798C68.5998 13.3185 57.4771 2.17238 51.7402 0.182007C70.8478 2.71095 86.3961 13.178 91.7818 18.0954C92.9058 49.2857 82.6495 70.8988 77.3809 77.8065C74.0089 72.4677 67.0778 66.4497 64.0337 64.1081C54.7609 81.8107 39.7979 92.3246 33.4756 95.3687C48.9302 74.2941 51.1548 43.5019 50.3352 30.7401C59.046 33.269 65.2045 39.287 67.1948 41.9798Z"/>
</mask>
<path d="M67.1948 41.9798C68.5998 13.3185 57.4771 2.17238 51.7402 0.182007C70.8478 2.71095 86.3961 13.178 91.7818 18.0954C92.9058 49.2857 82.6495 70.8988 77.3809 77.8065C74.0089 72.4677 67.0778 66.4497 64.0337 64.1081C54.7609 81.8107 39.7979 92.3246 33.4756 95.3687C48.9302 74.2941 51.1548 43.5019 50.3352 30.7401C59.046 33.269 65.2045 39.287 67.1948 41.9798Z" fill="url(#paint2_linear_115_1769)"/>
<path d="M67.1948 41.9798C68.5998 13.3185 57.4771 2.17238 51.7402 0.182007C70.8478 2.71095 86.3961 13.178 91.7818 18.0954C92.9058 49.2857 82.6495 70.8988 77.3809 77.8065C74.0089 72.4677 67.0778 66.4497 64.0337 64.1081C54.7609 81.8107 39.7979 92.3246 33.4756 95.3687C48.9302 74.2941 51.1548 43.5019 50.3352 30.7401C59.046 33.269 65.2045 39.287 67.1948 41.9798Z" fill="url(#paint3_linear_115_1769)"/>
<path d="M51.7402 0.182007L55.3349 -26.978L42.7602 26.0654L51.7402 0.182007ZM67.1948 41.9798L45.1629 58.2643L90.7997 120.008L94.5589 43.3212L67.1948 41.9798ZM50.3352 30.7401L57.9737 4.42958L20.4934 -6.4518L22.9946 32.4959L50.3352 30.7401ZM33.4756 95.3687L11.3826 79.1671L45.3608 120.053L33.4756 95.3687ZM64.0337 64.1081L80.7378 42.3927L54.8938 22.5127L39.7646 51.3958L64.0337 64.1081ZM77.3809 77.8065L54.2171 92.4363L75.2631 125.759L99.1647 94.4214L77.3809 77.8065ZM91.7818 18.0954L119.161 17.1087L118.747 5.61682L110.255 -2.13684L91.7818 18.0954ZM42.7602 26.0654C39.6437 24.9841 38.09 23.568 37.6978 23.1877C37.1466 22.653 37.2632 22.5787 37.6607 23.3705C38.4294 24.9017 40.3547 29.9504 39.8308 40.6385L94.5589 43.3212C96.248 8.86389 83.0077 -17.969 60.7201 -25.7014L42.7602 26.0654ZM89.2268 25.6954C84.5085 19.3118 73.6774 8.9887 57.9737 4.42958L42.6967 57.0506C43.1983 57.1962 43.9826 57.5679 44.8506 58.2187C45.2491 58.5174 45.5361 58.7795 45.6812 58.9231C45.7496 58.9907 45.7505 58.9965 45.6878 58.9253C45.6377 58.8682 45.4484 58.6505 45.1629 58.2643L89.2268 25.6954ZM22.9946 32.4959C23.2509 36.487 23.0604 44.9789 21.1434 54.5641C19.2048 64.257 15.9117 72.9911 11.3826 79.1671L55.5686 111.57C66.4941 96.6717 72.0406 79.4724 74.8731 65.3101C77.7271 51.0401 78.239 37.755 77.6758 28.9843L22.9946 32.4959ZM45.3608 120.053C56.0543 114.905 75.8506 100.593 88.3027 76.8204L39.7646 51.3958C36.8778 56.907 32.9737 61.5173 29.1242 65.0499C27.2231 66.7945 25.4457 68.1741 23.9979 69.1785C23.2783 69.6777 22.679 70.0571 22.2287 70.3247C21.7609 70.6027 21.544 70.7063 21.5904 70.684L45.3608 120.053ZM47.3295 85.8235C48.0408 86.3707 49.7323 87.7711 51.4859 89.4762C52.3332 90.3 53.0499 91.0546 53.5989 91.6879C54.1882 92.3678 54.332 92.6182 54.2171 92.4363L100.545 63.1768C94.4622 53.5463 84.2643 45.1053 80.7378 42.3927L47.3295 85.8235ZM99.1647 94.4214C108.589 82.0654 120.494 54.1078 119.161 17.1087L64.4027 19.082C64.8481 31.4425 63.0288 41.6256 60.7603 49.1076C59.6238 52.8561 58.3978 55.8487 57.3463 58.0237C56.2314 60.3297 55.5176 61.2958 55.597 61.1917L99.1647 94.4214ZM110.255 -2.13684C101.818 -9.83983 81.2896 -23.5428 55.3349 -26.978L48.1455 27.342C53.891 28.1025 59.5474 30.1414 64.4493 32.6439C69.4856 35.2151 72.6369 37.714 73.3089 38.3276L110.255 -2.13684Z" fill="url(#paint4_linear_115_1769)" fill-opacity="0.54" mask="url(#path-3-inside-1_115_1769)"/>
</g>
<defs>
<filter id="filter0_dii_115_1769" x="30.6656" y="-2.62793" width="64.0115" height="103.616" filterUnits="userSpaceOnUse" color-interpolation-filters="sRGB">
<feFlood flood-opacity="0" result="BackgroundImageFix"/>
<feColorMatrix in="SourceAlpha" type="matrix" values="0 0 0 0 0 0 0 0 0 0 0 0 0 0 0 0 0 0 127 0" result="hardAlpha"/>
<feOffset dy="2.80994"/>
<feGaussianBlur stdDeviation="1.40497"/>
<feComposite in2="hardAlpha" operator="out"/>
<feColorMatrix type="matrix" values="0 0 0 0 0 0 0 0 0 0 0 0 0 0 0 0 0 0 0.25 0"/>
<feBlend mode="normal" in2="BackgroundImageFix" result="effect1_dropShadow_115_1769"/>
<feBlend mode="normal" in="SourceGraphic" in2="effect1_dropShadow_115_1769" result="shape"/>
<feColorMatrix in="SourceAlpha" type="matrix" values="0 0 0 0 0 0 0 0 0 0 0 0 0 0 0 0 0 0 127 0" result="hardAlpha"/>
<feOffset dy="-3.51242"/>
<feGaussianBlur stdDeviation="1.40497"/>
<feComposite in2="hardAlpha" operator="arithmetic" k2="-1" k3="1"/>
<feColorMatrix type="matrix" values="0 0 0 0 0 0 0 0 0 0 0 0 0 0 0 0 0 0 0.08 0"/>
<feBlend mode="normal" in2="shape" result="effect2_innerShadow_115_1769"/>
<feColorMatrix in="SourceAlpha" type="matrix" values="0 0 0 0 0 0 0 0 0 0 0 0 0 0 0 0 0 0 127 0" result="hardAlpha"/>
<feOffset dx="-2.80994" dy="2.80994"/>
<feGaussianBlur stdDeviation="2.10745"/>
<feComposite in2="hardAlpha" operator="arithmetic" k2="-1" k3="1"/>
<feColorMatrix type="matrix" values="0 0 0 0 1 0 0 0 0 1 0 0 0 0 1 0 0 0 0.25 0"/>
<feBlend mode="normal" in2="effect2_innerShadow_115_1769" result="effect3_innerShadow_115_1769"/>
</filter>
<linearGradient id="paint0_linear_115_1769" x1="88.2134" y1="-21.7771" x2="62.5727" y2="89.918" gradientUnits="userSpaceOnUse">
<stop stop-color="#D9D9D9"/>
<stop offset="1" stop-color="#F3F3F3"/>
</linearGradient>
<linearGradient id="paint1_linear_115_1769" x1="32.3659" y1="100.806" x2="80.4861" y2="13.3472" gradientUnits="userSpaceOnUse">
<stop stop-color="#5247FF"/>
<stop offset="1" stop-color="#F006F8" stop-opacity="0"/>
</linearGradient>
<linearGradient id="paint2_linear_115_1769" x1="88.2134" y1="-21.7771" x2="62.5727" y2="89.918" gradientUnits="userSpaceOnUse">
<stop stop-color="#D9D9D9"/>
<stop offset="1" stop-color="#F3F3F3"/>
</linearGradient>
<linearGradient id="paint3_linear_115_1769" x1="83.6472" y1="-4.21495" x2="53.7916" y2="86.4055" gradientUnits="userSpaceOnUse">
<stop stop-color="white"/>
<stop offset="1" stop-color="white" stop-opacity="0"/>
</linearGradient>
<linearGradient id="paint4_linear_115_1769" x1="32.3659" y1="100.806" x2="80.4861" y2="13.3472" gradientUnits="userSpaceOnUse">
<stop stop-color="white"/>
<stop offset="1" stop-color="#C8C8C8" stop-opacity="0"/>
</linearGradient>
</defs>
</svg>
